<?xml version="1.0" encoding="UTF-8" standalone="no"?>
<svg
   width="500"
   height="329.95001"
   viewBox="0 0 500 329.95001"
   version="1.1"
   id="svg4542"
   sodipodi:docname="cdav2.svg"
   inkscape:version="1.3.2 (091e20e, 2023-11-25)"
   xmlns:inkscape="http://www.inkscape.org/namespaces/inkscape"
   xmlns:sodipodi="http://sodipodi.sourceforge.net/DTD/sodipodi-0.dtd"
   xmlns="http://www.w3.org/2000/svg"
   xmlns:svg="http://www.w3.org/2000/svg"
   xmlns:rdf="http://www.w3.org/1999/02/22-rdf-syntax-ns#"
   xmlns:cc="http://creativecommons.org/ns#"
   xmlns:dc="http://purl.org/dc/elements/1.1/">
  <metadata
     id="metadata4548">
    <rdf:RDF>
      <cc:Work
         rdf:about="">
        <dc:format>image/svg+xml</dc:format>
        <dc:type
           rdf:resource="http://purl.org/dc/dcmitype/StillImage" />
        <dc:title>Democraten_66_%28nl%29_Logo</dc:title>
      </cc:Work>
    </rdf:RDF>
  </metadata>
  <defs
     id="defs4546" />
  <sodipodi:namedview
     pagecolor="#ffffff"
     bordercolor="#666666"
     borderopacity="1"
     objecttolerance="10"
     gridtolerance="10"
     guidetolerance="10"
     inkscape:pageopacity="0"
     inkscape:pageshadow="2"
     inkscape:window-width="1440"
     inkscape:window-height="641"
     id="namedview4544"
     showgrid="false"
     fit-margin-top="0"
     fit-margin-left="0"
     fit-margin-right="0"
     fit-margin-bottom="0"
     inkscape:zoom="0.5"
     inkscape:cx="-72"
     inkscape:cy="-74"
     inkscape:window-x="51"
     inkscape:window-y="114"
     inkscape:window-maximized="0"
     inkscape:current-layer="g4635"
     inkscape:showpageshadow="2"
     inkscape:pagecheckerboard="0"
     inkscape:deskcolor="#d1d1d1" />
  <title
     id="title4534">Democraten_66_%28nl%29_Logo</title>
  <g
     id="g4540"
     style="fill:none;fill-rule:evenodd"
     transform="translate(0,237.56397)">
    <g
       id="g4635"
       transform="matrix(3.5714286,0,0,3.5714286,-2e-6,-237.55897)"
       style="stroke-width:0.27999997">
      <path
         fill="#2cc84d"
         d="M 69.50048,41.150816 H 67.428424 L 63.877632,51.31028 c 6.791232,0 8.48904,-5.905816 8.48904,-8.096536 0,-1.451352 -1.41484,-2.062928 -2.87532,-2.062928 m 20.866608,8.826776 h 4.271904 l 0.666344,-7.631008 h -0.520296 z"
         id="path2"
         style="stroke-width:0.255584" />
      <path
         fill="#2cc84d"
         d="m 22.4,46.1986 c 0,25.165896 20.474104,45.64 45.64,45.64 25.165896,0 45.64,-20.474104 45.64,-45.64 C 113.68,21.032704 93.205896,0.55860025 68.04,0.55860025 42.874104,0.55860025 22.4,21.032704 22.4,46.1986 Z m 26.808936,11.117904 c -1.679552,0.492912 -4.47272,0.921928 -7.329784,0.921928 -6.66344,0 -10.433304,-4.819584 -10.433304,-8.39776 0,-9.365328 9.17364,-15.681904 18.648504,-15.681904 2.263744,0 4.828712,0.282968 6.681696,0.757624 l -2.564968,7.421064 c -1.18664,-0.492912 -3.28608,-0.757624 -5.504184,-0.757624 -2.911832,0 -7.795312,2.172464 -7.795312,6.11576 0,2.245488 1.761704,3.349976 5.002144,3.349976 2.254616,0 3.797248,-0.492912 5.9332,-1.314432 l -2.637992,7.57624 z m 14.075376,0.785008 H 52.79624 l 8.333864,-23.82408 h 9.283176 c 9.064104,0 11.154416,4.51836 11.154416,8.30648 0,7.046816 -6.763848,15.5176 -18.292512,15.5176 z m 30.679208,0 0.31948,-3.74248 h -6.426112 l -2.181592,3.74248 H 76.34648 l 17.61704,-23.82408 h 8.58032 v 23.82408 z"
         id="path3-2"
         inkscape:export-filename="path3.svg"
         inkscape:export-xdpi="96"
         inkscape:export-ydpi="96"
         style="stroke-width:0.255584" />
      <path
         fill="#2cc84d"
         d="m -80.751998,-20.5898 h -0.6356 l -1.0892,3.1164 c 2.0832,0 2.604,-1.8116 2.604,-2.4836 0,-0.4452 -0.434,-0.6328 -0.882,-0.6328 m 6.4008,2.7076 h 1.3104 l 0.2044,-2.3408 h -0.1596 z"
         id="path2-2"
         style="fill:none;fill-rule:evenodd;stroke-width:0.0784" />
      <path
         fill="#2cc84d"
         d="m -95.199998,-19.0414 c 0,7.7196 6.2804,14 14,14 7.7196,0 14,-6.2804 14,-14 0,-7.7196 -6.2804,-14 -14,-14 -7.7196,0 -14,6.2804 -14,14 z m 8.2236,3.4104 c -0.5152,0.1512 -1.372,0.2828 -2.2484,0.2828 -2.044,0 -3.2004,-1.4784 -3.2004,-2.576 0,-2.8728 2.814,-4.8104 5.7204,-4.8104 0.6944,0 1.4812,0.0868 2.0496,0.2324 l -0.7868,2.2764 c -0.364,-0.1512 -1.008,-0.2324 -1.6884,-0.2324 -0.8932,0 -2.3912,0.6664 -2.3912,1.876 0,0.6888 0.5404,1.0276 1.5344,1.0276 0.6916,0 1.1648,-0.1512 1.82,-0.4032 l -0.8092,2.324 z m 4.3176,0.2408 h -3.2172 l 2.5564,-7.308 h 2.8476 c 2.7804,0 3.4216,1.386 3.4216,2.548 0,2.1616 -2.0748,4.76 -5.6112,4.76 z m 9.4108,0 0.098,-1.148 h -1.9712 l -0.6692,1.148 h -2.8616 l 5.404,-7.308 h 2.632 v 7.308 z"
         id="path3-2-3"
         inkscape:export-filename="path3.svg"
         inkscape:export-xdpi="96"
         inkscape:export-ydpi="96"
         style="fill:none;fill-rule:evenodd;stroke-width:0.0784" />
      <path
         fill="#2cc84d"
         d="m -19.599999,-33.0414 c 0,7.7196 6.2804,14 14,14 7.7196,0 14,-6.2804 14,-14 0,-7.7196 -6.2804,-14 -14,-14 -7.7196,0 -14,6.2804 -14,14 z m 8.2236,3.4104 c -0.5152,0.1512 -1.372,0.2828 -2.2484,0.2828 -2.044,0 -3.2004,-1.4784 -3.2004,-2.576 0,-2.8728 2.814,-4.8104 5.7204,-4.8104 0.6944,0 1.4812,0.0868 2.0496,0.2324 l -0.7868,2.2764 c -0.364,-0.1512 -1.008,-0.2324 -1.6884,-0.2324 -0.8932,0 -2.3912,0.6664 -2.3912,1.876 0,0.6888 0.5404,1.0276 1.5344,1.0276 0.6916,0 1.1648,-0.1512 1.82,-0.4032 l -0.8092,2.324 z m 4.3176,0.2408 h -3.2172 l 2.5564,-7.308 h 2.8476 c 2.7804,0 3.4216,1.386 3.4216,2.548 0,2.1616 -2.0748,4.76 -5.6112,4.76 z m 9.4108,0 0.098,-1.148 h -1.9712 l -0.6692,1.148 h -2.8616 l 5.404,-7.308 h 2.632 v 7.308 z"
         id="path3-2-5"
         inkscape:export-filename="path3.svg"
         inkscape:export-xdpi="96"
         inkscape:export-ydpi="96"
         style="fill:none;fill-rule:evenodd;stroke-width:0.0784" />
    </g>
  </g>
</svg>
